<?xml version="1.0" encoding="UTF-8" standalone="no"?>
<!-- Created with Inkscape (http://www.inkscape.org/) -->

<svg
   xmlns:dc="http://purl.org/dc/elements/1.1/"
   xmlns:cc="http://creativecommons.org/ns#"
   xmlns:rdf="http://www.w3.org/1999/02/22-rdf-syntax-ns#"
   xmlns:svg="http://www.w3.org/2000/svg"
   xmlns="http://www.w3.org/2000/svg"
   xmlns:sodipodi="http://sodipodi.sourceforge.net/DTD/sodipodi-0.dtd"
   xmlns:inkscape="http://www.inkscape.org/namespaces/inkscape"
   width="203.14156mm"
   height="181.18129mm"
   viewBox="0 0 203.14156 181.18129"
   version="1.1"
   id="svg8"
   sodipodi:docname="1.svg"
   inkscape:version="0.92.5 (2060ec1f9f, 2020-04-08)">
  <defs
     id="defs2" />
  <sodipodi:namedview
     id="base"
     pagecolor="#ffffff"
     bordercolor="#666666"
     borderopacity="1.0"
     inkscape:pageopacity="0.0"
     inkscape:pageshadow="2"
     inkscape:zoom="0.59"
     inkscape:cx="601.33779"
     inkscape:cy="393.39275"
     inkscape:document-units="mm"
     inkscape:current-layer="layer1"
     showgrid="false"
     inkscape:window-width="1362"
     inkscape:window-height="121"
     inkscape:window-x="0"
     inkscape:window-y="643"
     inkscape:window-maximized="0" />
  <metadata
     id="metadata5">
    <rdf:RDF>
      <cc:Work
         rdf:about="">
        <dc:format>image/svg+xml</dc:format>
        <dc:type
           rdf:resource="http://purl.org/dc/dcmitype/StillImage" />
        <dc:title />
      </cc:Work>
    </rdf:RDF>
  </metadata>
  <g
     inkscape:label="Ebene 1"
     inkscape:groupmode="layer"
     id="layer1"
     transform="translate(-3.2006377,-67.862957)">
    <g
       id="g255"
       transform="matrix(2.6648071,0,0,2.3624137,-165.94746,-142.68427)">
      <path
         style="fill:#fdfd00;stroke-width:0.35277778"
         d="m 100.96299,165.81707 h -0.30541 l -0.42333,-0.42334 -0.423337,-0.42333 v -0.67705 -0.67704 l 1.234727,-2.03258 1.23472,-2.03257 v -0.97317 -0.97317 l 1.09362,-1.8029 1.09362,-1.80291 -1.88737,1.81166 -1.88737,1.81167 -0.793752,0.40561 -0.79375,0.40561 -0.684078,-0.36611 -0.684077,-0.36611 -0.253542,-1.67477 -0.253542,-1.67478 1.276772,-2.3879 1.27677,-2.38791 -0.195322,-0.509 -0.195323,-0.509 -0.983458,0.7271 -0.98346,0.72711 -0.74787,-0.40026 -0.747871,-0.40024 -0.03738,-0.42856 -0.03738,-0.42856 0.06938,-1.02174 0.06938,-1.02173 -0.447418,-0.83601 -0.447418,-0.83601 0.610456,-1.28014 0.610457,-1.28014 1.88676,-2.50656 1.886756,-2.50656 3.41808,-3.99903 3.41807,-3.99904 3.08363,-4.11485 3.08363,-4.11486 1.90524,-2.29305 1.90523,-2.29306 2.78905,-2.91042 2.78905,-2.91041 h 0.58638 0.58638 l 0.42334,0.42333 0.42333,0.42333 v 0.7682 0.76819 l -0.52917,0.43917 -0.52916,0.43917 v 0.28254 0.28255 l 1.00128,-0.49951 1.00128,-0.49951 0.6409,-0.70818 0.64089,-0.70817 h 0.75382 0.75381 l 1.55802,-1.5875 1.55801,-1.5875 h 0.56155 0.56155 l 0.42333,0.42333 0.42333,0.42333 v 0.60794 0.60793 l -0.95772,1.1736 -0.95772,1.17359 0.75013,-0.6438 0.75014,-0.64381 1.00134,0.11464 1.00133,0.11464 0.11573,1.01265 0.11573,1.01265 1.16424,-1.12842 1.16424,-1.12843 1.01309,0.11578 1.01309,0.11577 0.10381,0.88917 0.10381,0.88917 -1.07395,1.02891 -1.07395,1.02892 v 0.93083 0.93084 l -0.93323,0.85525 -0.93322,0.85524 -7.88622,8.74489 -7.88622,8.74489 -0.001,0.60372 -0.001,0.60372 -2.78909,4.40972 -2.78908,4.40973 -2.21398,3.52777 -2.21399,3.52778 -3.67961,5.56583 -3.67962,5.56584 -0.64126,0.34319 -0.64127,0.3432 h -0.30541 z"
         id="path261"
         inkscape:connector-curvature="0" />
      <path
         style="fill:#fc0000;stroke-width:0.35277778"
         d="m 90.926466,153.4218 -0.111387,-0.048 -0.881944,-0.16215 -0.881945,-0.16215 -0.470833,-0.38695 -0.470835,-0.38696 0.235164,-1.56818 0.235164,-1.56818 0.579961,-1.27426 0.579962,-1.27425 1.364423,-2.05774 1.364422,-2.05774 0.294873,-1.02816 0.294872,-1.02816 -0.708236,0.37904 -0.708236,0.37903 -0.460951,-0.17688 -0.46095,-0.17688 -1.170956,1.63052 -1.170956,1.63053 -1.022906,1.16503 -1.022905,1.16502 h -0.774844 -0.774844 l -0.423333,-0.42333 -0.423334,-0.42334 v -0.68025 -0.68025 l 1.100479,-1.92344 1.100479,-1.92343 -0.347198,-0.3472 -0.347198,-0.3472 -1.105252,1.3955 -1.105252,1.39549 -0.879845,0.22083 -0.879844,0.22083 -0.890794,1.75789 -0.890794,1.7579 -0.435029,0.0418 -0.43503,0.0418 -0.529166,-0.0771 -0.529167,-0.0771 -0.259181,-0.40571 -0.259182,-0.40571 -0.0054,-0.56235 -0.0054,-0.56235 2.181777,-3.4946 2.181777,-3.49459 3.933258,-5.29167 3.933258,-5.29167 3.967736,-4.7625 3.967737,-4.7625 3.552419,-3.9858 3.55242,-3.98581 4.75999,-4.57507 4.75998,-4.57506 0.8358,-0.209774 0.83579,-0.20977 0.50943,0.422794 0.50943,0.42279 0.7992,-0.55979 0.79921,-0.559785 h 0.95902 0.95902 l 0.21802,-0.352777 0.21803,-0.352778 h 0.84031 0.8403 l 0.20995,0.339697 0.20994,0.339698 1.26304,-1.398031 1.26303,-1.398031 h 0.7977 0.7977 l 0.43537,0.524586 0.43537,0.524585 -0.20318,0.809536 -0.20319,0.809536 0.69296,0.432757 0.69295,0.432757 v 0.68246 0.68246 l -1.93174,2.08651 -1.93175,2.08651 0.21023,0.21022 0.21022,0.21023 -0.21175,0.84369 -0.21176,0.84369 -4.27087,4.5295 -4.27087,4.52951 -2.02879,2.49254 -2.0288,2.49253 -2.48075,3.35139 -2.48076,3.35139 -3.60598,4.23334 -3.60598,4.23333 -1.889451,2.50656 -1.889451,2.50656 -0.621607,1.30353 -0.621607,1.30352 0.439884,0.70436 0.439884,0.70437 -0.08469,1.43531 -0.08469,1.43532 0.687017,0.50236 0.687018,0.50236 -0.527448,0.34236 -0.527449,0.34235 -0.758968,-0.17789 -0.758969,-0.17789 -1.052225,1.19842 -1.052225,1.19842 -0.723253,0.38707 -0.723253,0.38708 z"
         id="path259"
         inkscape:connector-curvature="0" />
      <path
         style="fill:#000000;stroke-width:0.35277778"
         d="M 75.703414,142.53373 H 75.23406 l -0.247653,-0.24765 -0.247652,-0.24765 -1.224708,0.0825 -1.224707,0.0825 -0.394422,-0.86566 -0.394422,-0.86566 0.36774,-1.05491 0.367741,-1.0549 -0.847438,-0.21269 -0.847438,-0.21269 -0.225926,-0.90016 -0.225926,-0.90016 -1.560133,2.40483 -1.560134,2.40484 -0.72784,0.61737 -0.727839,0.61736 H 65.048416 64.58353 l -0.554365,-0.55437 -0.554365,-0.55436 v -0.82394 -0.82392 l 1.621091,-3.11963 1.62109,-3.11962 0.583771,-1.20228 0.58377,-1.20229 1.886351,-3.7366 1.886351,-3.7366 1.73152,-2.46945 1.731519,-2.46944 2.976458,-4.51296 2.976458,-4.51296 1.492646,-1.83704 1.492646,-1.83704 2.359327,-2.46945 2.359327,-2.46944 3.440515,-4.339128 3.440514,-4.339127 1.147896,-1.217123 1.147895,-1.217124 h 0.734566 0.734565 l 0.334271,0.597307 0.334263,0.597307 1.59091,-0.843974 1.59091,-0.843973 0.5618,0.466251 0.56179,0.466251 v 0.716859 0.716859 l -2.82222,2.621899 -2.82222,2.6219 v 0.501591 0.50159 l 0.706776,-0.441388 0.706774,-0.441388 0.61614,0.388016 0.61614,0.388017 0.12243,0.622982 0.12243,0.622982 -0.73979,1.000615 -0.73979,1.000619 v 0.15764 0.15765 l 0.73956,-0.1934 0.73955,-0.1934 0.83191,-0.831904 0.83191,-0.831908 h 0.65417 0.65416 l 0.66767,0.488212 0.66767,0.48821 -0.036,1.27114 -0.036,1.27113 0.59463,-0.43643 0.59463,-0.43643 1.92796,-1.44772 1.92796,-1.447728 0.62537,-0.219969 0.62536,-0.219968 0.68955,0.689553 0.68956,0.689553 -0.2368,0.625359 -0.23679,0.62537 -3.69354,3.52777 -3.69353,3.52778 -3.5582,3.89265 -3.558199,3.89264 -4.259189,5.10319 -4.259188,5.10319 -2.412661,3.175 -2.412661,3.175 -1.475963,1.5875 -1.475964,1.5875 -1.605787,2.1313 -1.605788,2.1313 -1.448111,1.30828 -1.448111,1.30828 z"
         id="path257"
         inkscape:connector-curvature="0" />
    </g>
  </g>
</svg>
